<svg xmlns="http://www.w3.org/2000/svg" width="52" height="65" fill="none" viewBox="0 0 52 65">
  <path fill="#021A42" d="M48.242 5.078h1.524a1.523 1.523 0 0 1 1.523 1.524v52.812A5.586 5.586 0 0 1 45.703 65H6.602a1.523 1.523 0 0 1-1.524-1.523v-1.524h40.625a2.54 2.54 0 0 0 2.54-2.539V5.078Zm-10.156 44.67H24.375V46.7h13.71v3.047Zm0-6.094H24.375v-3.047h13.71v3.047Zm0-6.094H24.375v-3.029h13.71v3.047-.018Zm0-6.093H24.375v-3.03h13.71v3.047-.017Zm-18.79-28.42v14.726a1.523 1.523 0 0 1-1.523 1.524H3.047v37.578h40.117V3.047H19.297ZM16.25 16.25V5.2L5.203 16.25H16.25Zm28.438 43.672H1.523A1.523 1.523 0 0 1 0 58.398V17.773a1.524 1.524 0 0 1 .46-1.089L16.71.447A1.523 1.523 0 0 1 17.773 0h26.915a1.523 1.523 0 0 1 1.523 1.523v56.875a1.523 1.523 0 0 1-1.523 1.524Z"/>
  <path fill="#68BCEB" fill-rule="evenodd" d="M15.123 49.11v-1.495a.65.65 0 0 1 .508-.64c2.678-.624 4.115-2.514 4.115-4.702 0-2.377-1.226-3.809-4.334-4.91-2.247-.81-3.161-1.385-3.161-2.22 0-.731.548-1.488 2.247-1.488a7.892 7.892 0 0 1 3.075.602.628.628 0 0 0 .54-.018.638.638 0 0 0 .343-.419l.44-1.653a.652.652 0 0 0-.396-.78 9.368 9.368 0 0 0-2.669-.598.652.652 0 0 1-.597-.653v-1.015a.658.658 0 0 0-.657-.658h-1.255a.658.658 0 0 0-.655.657v1.298a.65.65 0 0 1-.507.635c-2.489.632-3.918 2.356-3.918 4.54 0 2.539 1.907 3.839 4.7 4.778 1.957.653 2.793 1.27 2.793 2.27s-1.016 1.62-2.54 1.62a9.047 9.047 0 0 1-3.633-.802.656.656 0 0 0-.901.436l-.452 1.757a.653.653 0 0 0 .373.762 11.34 11.34 0 0 0 3.352.828.655.655 0 0 1 .591.652v1.217a.657.657 0 0 0 .678.655h1.27a.658.658 0 0 0 .657-.655h-.007Zm14.16-40.985h4.4v4.403h4.403v4.4h-4.403v4.4h-4.4v-4.4h-4.4v-4.4h4.4V8.125Z" clip-rule="evenodd"/>
</svg>
