<svg xmlns="http://www.w3.org/2000/svg" width="25" height="25" fill="none" viewBox="0 0 25 25">
  <circle cx="12.5" cy="12.5" r="12.5" fill="#68BCEB" transform="rotate(90 12.5 12.5)"/>
  <path fill="#fff" stroke="#fff" stroke-width=".1" d="M12.093 15.753a.633.633 0 0 1-.047-.042l.047.042Zm0 0 .018.014m-.018-.014.018.014m.263.119-.025-.006.025.006Zm0 0a.526.526 0 0 0 .034.005m-.034-.005.034.005m0 0 .006.001a.401.401 0 0 0 .022.003m-.028-.004.028.004m0 0a.66.66 0 0 0 .063.003m-.063-.003.063.003m.384-.128-.006.004-.022.017m.028-.02-.028.02m.028-.02.005-.004a.35.35 0 0 0 .018-.014m-.023.017.023-.017m-.05.037-.023.014m.022-.014-.022.014m.073-.05a.654.654 0 0 0 .043-.04l-.043.04Zm1.933-3.672-.035-.035a.641.641 0 0 1 .906.906l-2.757 2.758 1.886-3.629Zm0 0-.035-.035-1.664 1.663V6.59a.64.64 0 1 0-1.282 0v7.12l-1.663-1.663-.035.035h4.68Zm-2.728 3.684.004.004-.004-.003Zm.033.024a.455.455 0 0 1-.024-.017l.024.018Zm0 0c.007.006.015.01.022.014l.005.003.005.003-.032-.02Zm.355.108a.632.632 0 0 0 .063-.003l-.063.003Zm.324-.088-.021.013.02-.013Zm0 0c.002 0 .003-.002.005-.003m-.005.003.005-.003m0 0a.231.231 0 0 0 .005-.003m-.005.003.005-.003m-.236.086a.477.477 0 0 0 .027-.004l-.033.005h.006Zm-.25-.062.008.002-.055-.017.007.003.02.007a.481.481 0 0 0 .02.005Z"/>
  <path fill="#fff" stroke="#fff" stroke-width=".1" d="M18.41 11.86a.64.64 0 0 0-.642.64v4.48H7.232V12.5a.64.64 0 1 0-1.282 0v5.121a.64.64 0 0 0 .64.641h11.82a.64.64 0 0 0 .64-.64V12.5a.64.64 0 0 0-.64-.64Z"/>
</svg>
