<svg xmlns="http://www.w3.org/2000/svg" width="45" height="63" fill="none" viewBox="0 0 45 63">
  <path fill="#021A42" d="M34.511 16.44c-4.839-8.221-9.596-15.005-9.797-15.29a2.706 2.706 0 0 0-4.428 0c-.2.285-4.958 7.069-9.797 15.29C3.725 27.93.437 35.944.437 40.937.437 53.103 10.334 63 22.5 63c12.166 0 22.064-9.898 22.064-22.063 0-4.992-3.289-13.006-10.053-24.497Zm-12.01 41.147c-9.182 0-16.652-7.47-16.652-16.65 0-7.095 10.544-24.319 16.651-33.44 6.107 9.12 16.651 26.34 16.651 33.44 0 9.181-7.47 16.65-16.65 16.65Z"/>
</svg>
