<svg width="15" height="15" viewBox="0 0 15 15" fill="none" xmlns="http://www.w3.org/2000/svg">
<path d="M14.2184 10.8652L12.7086 9.6453C12.1972 9.23052 11.4666 9.20587 10.9309 9.5965L9.4941 10.6457C9.29928 10.7921 9.03165 10.7677 8.86094 10.5969L6.49878 8.44975L4.33143 6.05865C4.16097 5.88785 4.13661 5.61946 4.28273 5.42427L5.32987 3.98473C5.71951 3.44795 5.69516 2.71598 5.28117 2.2036L4.06356 0.690864C3.52781 0.00769176 2.50502 -0.0411063 1.89621 0.568869L0.581193 1.88642C0.288966 2.1792 0.142853 2.59399 0.142853 2.98437C0.313318 6.08304 1.72575 9.03532 3.79568 11.1092C5.86562 13.1832 8.78788 14.5983 11.905 14.7691C12.319 14.7935 12.7086 14.6225 13.0008 14.3297L14.3158 13.0124C14.9733 12.4268 14.9003 11.402 14.2184 10.8652Z" fill="white"/>
</svg>
