<svg xmlns="http://www.w3.org/2000/svg" width="65" height="56" fill="none" viewBox="0 0 65 56">
  <path fill="#021A42" d="M45.295 34.163H29.941V27.51h-2.047v6.653h-2.047V27.51H11.26a5.643 5.643 0 0 0-5.63 5.63v6.142h53.74V22.453c0-.965-1.215-1.149-1.822-.542L45.295 34.163ZM61.93 18.7a1.536 1.536 0 0 1 3.071 0v36.456h-3.07V18.7ZM5.63 55.155V41.848h53.74v13.307H56.3V44.92H8.7v10.236H5.63ZM0 29.772a1.536 1.536 0 0 1 3.07 0v25.383H0V29.772Z"/>
  <path fill="#68BCEB" fill-rule="evenodd" d="M54.508 7.823a4.862 4.862 0 1 0 0 9.724 4.862 4.862 0 0 0 0-9.724ZM40.37 27.51l6.993-6.997a5.901 5.901 0 0 1 8.325 0l.181.182-6.815 6.815-4.606 4.606h-12.46V27.51h8.381Z" clip-rule="evenodd"/>
  <path fill="#021A42" d="M9.804 0h19.29a4.184 4.184 0 0 1 4.174 4.174V16.81a4.184 4.184 0 0 1-4.174 4.174H9.804A4.185 4.185 0 0 1 5.63 16.81V4.174A4.184 4.184 0 0 1 9.804 0Zm19.29 2.047H9.804a2.132 2.132 0 0 0-2.127 2.127V16.81a2.137 2.137 0 0 0 2.127 2.127h19.29a2.142 2.142 0 0 0 2.127-2.127V4.174a2.137 2.137 0 0 0-2.127-2.127Z"/>
  <path fill="#68BCEB" d="M9.724 11.516h2.777l1.28-1.472a.767.767 0 0 1 1.246.149l1.095 1.983 2.25-7.406a.768.768 0 0 1 1.474.041l1.957 8.076 1.418-5.315a.767.767 0 0 1 1.436-.128l1.886 4.072h2.63v1.535h-3.12a.768.768 0 0 1-.695-.445l-1.203-2.598-1.635 6.18a.768.768 0 0 1-1.485-.015L19.02 7.897l-1.948 6.416a.768.768 0 0 1-1.417.197l-1.441-2.626-.747.86a.767.767 0 0 1-.617.307H9.724v-1.535Z"/>
</svg>
