<svg xmlns="http://www.w3.org/2000/svg" width="65" height="55" fill="none" viewBox="0 0 65 55">
  <path fill="#68BCEB" fill-rule="evenodd" d="M25.216 4.323c9.16-9.16 25.213-2.817 25.213 10.444 0 2.005-.529 4.099-1.448 6.213a18.126 18.126 0 0 0-8.37 2.17l-7.363-13.4a1.526 1.526 0 0 0-2.778.254l-5.722 16.708-4.733-10.177a1.527 1.527 0 0 0-2.379-.57l-6.105 5.124-10.027.026C.55 18.945 0 16.805 0 14.755 0 1.498 16.047-4.856 25.216 4.322Zm24.679 31.485a3.409 3.409 0 1 1-3.984 3.981 9.275 9.275 0 0 0-2.66-5.053l-1.215-1.216c-.83-.83.763-2.43 1.6-1.6l1.216 1.216a9.279 9.279 0 0 0 5.045 2.664l-.002.008Zm-18.759 4.75a47.961 47.961 0 0 1-5.91 3.562C18.489 40.777 8.213 32.594 3.109 24.14h8.981c.357 0 .703-.125.977-.354l4.997-4.198 5.508 11.843a1.526 1.526 0 0 0 2.827-.147l5.831-17.046 5.816 10.586c-.581.456-1.136.946-1.658 1.468a18.14 18.14 0 0 0-5.27 14.255l.018.01Z" clip-rule="evenodd"/>
  <path fill="#021A42" d="M49.226 51.826a12.69 12.69 0 1 0-.06-25.38 12.69 12.69 0 0 0 .06 25.38Zm11.362-11.66H57.18V38.13h3.41v2.035ZM48.213 50.51V47.1h2.036v3.41h-2.036Zm2.036-22.725v3.409h-2.036v-3.41h2.036ZM37.863 38.13h3.41v2.036h-3.41V38.13Zm22.512 12.142A15.685 15.685 0 1 1 65 39.148a15.746 15.746 0 0 1-4.625 11.123Z"/>
</svg>
