<svg xmlns="http://www.w3.org/2000/svg" width="69" height="63" fill="none" viewBox="0 0 69 63">
  <path stroke="#021A42" stroke-linecap="round" stroke-linejoin="round" stroke-width="2.7" d="M58.84 36.095 63 31.953c7.164-7.164 3.62-16.791-2.146-23.041a26.363 26.363 0 0 0-6.325-5C51.582 2.27 42.402-.157 36.377 5.776L23.895 18.128c-3.358 3.34 5.13 6.586 9.44 2.35l3.153-3.04c4.627-4.217 10.467 4.235 17.743-1.511M10.257 34.228l-4.049-4.16C-7.729 16.244 16.245-7.47 30.275 6.244l2.8 2.798m10.055 11.4 16.064 16.79c3.283 3.452-1.586 9.982-5.803 5.598l-7.462-7.78m-6.568 5.242 8.284 8.508c3.321 3.396 10.037-1.623 5.821-5.97l-8.078-8.302M36.88 49.752l4.123 4.16c3.358 3.377 9.851-1.437 5.597-5.821"/>
  <path stroke="#68BCEB" stroke-miterlimit="22.93" stroke-width="2.7" d="m20.126 30.796.43.43a3.88 3.88 0 0 1 0 5.447l-5.71 5.728a3.88 3.88 0 0 1-5.448 0l-.429-.448a3.843 3.843 0 0 1 0-5.43l5.71-5.727a3.88 3.88 0 0 1 5.447 0Zm9.627 2.612.43.448a3.843 3.843 0 0 1 0 5.429l-9.05 9.123a3.88 3.88 0 0 1-5.447 0l-.43-.447a3.843 3.843 0 0 1 0-5.43l9.105-9.123a3.88 3.88 0 0 1 5.448 0h-.056Zm3.731 8.526.448.43a3.88 3.88 0 0 1 0 5.447l-6.269 6.25a3.843 3.843 0 0 1-5.429 0l-.447-.447a3.843 3.843 0 0 1 0-5.43l6.25-6.25a3.843 3.843 0 0 1 5.429 0h.018Zm4.03 8.116.448.448a3.862 3.862 0 0 1 0 5.429l-3.769 3.843a3.88 3.88 0 0 1-5.447 0l-.43-.448a3.843 3.843 0 0 1 0-5.429l3.825-3.843a3.88 3.88 0 0 1 5.448 0h-.075Z"/>
</svg>
