<svg xmlns="http://www.w3.org/2000/svg" width="235" height="79" fill="none" viewBox="0 0 235 79">
  <g class="g14">
    <g class="ACROMED">
      <path fill="#173E7D" d="M51.01 41.33c-.128.372-.317.88-.565 1.52-.248.64-.53 1.381-.846 2.221-.317.84-.671 1.765-1.063 2.775-.391 1.01-.789 2.069-1.193 3.177h7.331a382.522 382.522 0 0 0-1.14-3.187 113.21 113.21 0 0 0-1.047-2.78c-.332-.84-.622-1.58-.872-2.22a66.01 66.01 0 0 0-.604-1.506Zm6.934 19.83a109.33 109.33 0 0 0-.92-2.745c-.328-.94-.656-1.874-.98-2.805H46.03l-.973 2.812c-.326.94-.628 1.853-.909 2.737h-5.993c.965-2.762 1.88-5.314 2.746-7.658a268.5 268.5 0 0 1 2.541-6.622 237.794 237.794 0 0 1 2.45-5.9 130.323 130.323 0 0 1 2.505-5.457h5.47a197.091 197.091 0 0 1 4.962 11.357c.83 2.072 1.679 4.28 2.546 6.622a464.804 464.804 0 0 1 2.75 7.658h-6.18Z" class="path22"/>
      <path fill="#173E7D" d="M78.183 61.677c-4.168 0-7.343-1.16-9.526-3.477-2.182-2.318-3.274-5.61-3.274-9.878 0-2.12.333-4.014.999-5.679.666-1.664 1.578-3.07 2.737-4.217 1.16-1.147 2.54-2.016 4.144-2.608 1.603-.592 3.341-.888 5.216-.888 1.085 0 2.072.08 2.96.24.887.161 1.664.346 2.33.555a11.578 11.578 0 0 1 2.627 1.166l-1.665 4.661c-.79-.419-1.708-.777-2.756-1.072-1.048-.297-2.238-.444-3.57-.444-.888 0-1.757.147-2.608.444a5.877 5.877 0 0 0-2.257 1.424c-.653.653-1.178 1.498-1.572 2.534-.395 1.036-.592 2.293-.592 3.773 0 1.184.13 2.288.388 3.311.26 1.023.679 1.905 1.258 2.645.58.74 1.338 1.326 2.275 1.758.938.431 2.072.647 3.404.647.838 0 1.59-.05 2.257-.148a16.44 16.44 0 0 0 1.775-.352c.518-.135.974-.29 1.37-.462.393-.172.751-.333 1.072-.48l1.59 4.623c-.813.494-1.96.938-3.44 1.332-1.48.394-3.194.592-5.142.592Z" class="path26"/>
      <path fill="#173E7D" d="M98.308 40.146c-.42 0-.796.013-1.129.038-.332.024-.647.05-.943.073v6.956h1.628c2.17 0 3.724-.272 4.661-.815.937-.542 1.406-1.467 1.406-2.774 0-1.258-.475-2.152-1.424-2.682-.95-.53-2.349-.796-4.2-.796Zm-.333-4.92c3.847 0 6.794.684 8.841 2.053 2.047 1.37 3.071 3.496 3.071 6.382 0 1.8-.413 3.262-1.239 4.383-.827 1.123-2.017 2.005-3.57 2.646.518.641 1.06 1.375 1.627 2.2a63.44 63.44 0 0 1 1.684 2.59c.555.9 1.091 1.838 1.609 2.812a69.8 69.8 0 0 1 1.443 2.867h-6.452l-1.43-2.552a59.822 59.822 0 0 0-1.485-2.516 68.626 68.626 0 0 0-1.504-2.312 25.163 25.163 0 0 0-1.485-1.98h-2.849v9.36h-5.771V35.892a32.917 32.917 0 0 1 3.903-.518 50.115 50.115 0 0 1 3.607-.148" class="path30"/>
      <path fill="#173E7D" d="M119.321 48.322c0 1.258.153 2.392.462 3.404.308 1.011.752 1.88 1.331 2.608a5.896 5.896 0 0 0 2.128 1.683c.838.395 1.799.592 2.886.592 1.06 0 2.016-.197 2.867-.592a5.853 5.853 0 0 0 2.145-1.683c.58-.728 1.023-1.597 1.332-2.608.308-1.011.462-2.146.462-3.404s-.154-2.398-.462-3.422c-.309-1.023-.752-1.898-1.332-2.627a5.858 5.858 0 0 0-2.145-1.682c-.851-.395-1.807-.593-2.867-.593-1.087 0-2.048.204-2.886.61a6.09 6.09 0 0 0-2.128 1.703c-.579.727-1.023 1.603-1.331 2.626-.309 1.024-.462 2.152-.462 3.385Zm19.57 0c0 2.195-.328 4.125-.981 5.79-.654 1.664-1.548 3.058-2.682 4.18-1.135 1.122-2.485 1.967-4.051 2.535-1.566.566-3.249.85-5.049.85-1.752 0-3.404-.284-4.957-.85a11.4 11.4 0 0 1-4.07-2.535c-1.159-1.122-2.072-2.516-2.738-4.18-.666-1.665-.998-3.595-.998-5.79s.344-4.124 1.035-5.79c.69-1.664 1.621-3.064 2.794-4.198a11.476 11.476 0 0 1 4.069-2.553 13.969 13.969 0 0 1 4.865-.85c1.751 0 3.403.283 4.957.85a11.286 11.286 0 0 1 4.069 2.553c1.159 1.134 2.072 2.534 2.737 4.199.666 1.665 1 3.594 1 5.79Z" class="path34"/>
      <path fill="#173E7D" d="M150.506 35.522c.446.814.958 1.82 1.539 3.015a160.313 160.313 0 0 1 1.818 3.885 203.767 203.767 0 0 1 1.874 4.273 4866.12 4866.12 0 0 0 1.743 4.106c.543-1.283 1.125-2.651 1.743-4.107a198.68 198.68 0 0 1 1.873-4.272 153.06 153.06 0 0 1 1.818-3.885 72.289 72.289 0 0 1 1.539-3.015h5.254c.246 1.702.474 3.607.684 5.716.209 2.108.394 4.304.555 6.584a637.553 637.553 0 0 1 .795 13.337h-5.623a692.35 692.35 0 0 0-.295-8.139 222.385 222.385 0 0 0-.556-8.878c-.446 1.036-.94 2.183-1.484 3.44a474.42 474.42 0 0 0-1.614 3.773 593.359 593.359 0 0 1-1.54 3.608 759.668 759.668 0 0 0-1.263 2.94h-4.032a725.25 725.25 0 0 0-1.261-2.94c-.495-1.147-1.01-2.35-1.541-3.608a514.381 514.381 0 0 0-1.614-3.773c-.544-1.257-1.04-2.404-1.485-3.44a222.37 222.37 0 0 0-.555 8.878 651.509 651.509 0 0 0-.295 8.14h-5.624c.098-2.023.216-4.181.352-6.475.135-2.294.283-4.58.444-6.863.16-2.28.345-4.476.555-6.584.209-2.109.437-4.014.684-5.716h5.512Z" class="path38"/>
      <path fill="#173E7D" d="M176.883 61.16V35.521h17.314v4.846h-11.543V45.4h10.248v4.735h-10.248v6.178h12.393v4.846h-18.164Z" class="path42"/>
      <path fill="#173E7D" d="M205.072 56.461c.271.025.586.044.943.055.358.013.783.019 1.277.019 2.885 0 5.025-.727 6.419-2.182 1.392-1.456 2.09-3.465 2.09-6.03 0-2.689-.666-4.724-1.998-6.105-1.332-1.38-3.441-2.072-6.326-2.072-.395 0-.802.007-1.221.019-.42.013-.814.043-1.184.092v16.204Zm16.685-8.139c0 2.22-.346 4.156-1.037 5.808-.69 1.653-1.67 3.022-2.94 4.107-1.271 1.085-2.818 1.9-4.643 2.441-1.825.542-3.872.814-6.141.814-1.036 0-2.245-.043-3.626-.13a29.626 29.626 0 0 1-4.069-.536v-24.97a34.158 34.158 0 0 1 4.162-.5 63.7 63.7 0 0 1 3.718-.13c2.195 0 4.186.247 5.975.74 1.787.494 3.323 1.27 4.605 2.33 1.282 1.061 2.269 2.418 2.959 4.07.691 1.653 1.037 3.638 1.037 5.956" class="path46"/>
    </g>
    <g class="FOOTER">
      <path fill="#173E7D" d="M39.927 78.07c.387 0 .669-.065.845-.196a.65.65 0 0 0 .265-.555.718.718 0 0 0-.09-.367.935.935 0 0 0-.256-.277 2.127 2.127 0 0 0-.406-.23 6.014 6.014 0 0 0-.545-.21 7.264 7.264 0 0 1-.593-.243 1.992 1.992 0 0 1-.504-.329 1.503 1.503 0 0 1-.35-.47 1.493 1.493 0 0 1-.132-.656c0-.535.185-.954.554-1.259.37-.304.874-.457 1.51-.457.37 0 .7.042.987.124.287.083.513.173.678.27l-.333.87a2.543 2.543 0 0 0-.636-.248 2.95 2.95 0 0 0-.712-.085c-.29 0-.516.06-.679.179a.59.59 0 0 0-.243.504c0 .13.027.243.081.336a.838.838 0 0 0 .23.252c.1.074.217.142.35.205.134.063.28.123.44.18.279.101.528.206.747.31.219.106.404.231.555.376.15.145.265.316.345.513.08.196.12.433.12.712 0 .535-.19.948-.568 1.242-.379.292-.932.439-1.66.439a4.415 4.415 0 0 1-1.207-.162 3.713 3.713 0 0 1-.406-.14 2.455 2.455 0 0 1-.273-.133l.316-.88c.154.086.361.171.623.257.262.085.578.128.947.128Z" class="path66"/>
      <path fill="#173E7D" d="M44.851 73.829c-.273 0-.498.008-.674.025v2.014h.52c.518 0 .916-.072 1.195-.217.279-.146.419-.42.419-.824a.978.978 0 0 0-.112-.486.8.8 0 0 0-.307-.308 1.442 1.442 0 0 0-.465-.157 3.361 3.361 0 0 0-.576-.047Zm-.076-.93c.858 0 1.517.156 1.975.469.458.313.687.802.687 1.468 0 .347-.061.644-.183.892a1.54 1.54 0 0 1-.534.605 2.477 2.477 0 0 1-.853.346 5.39 5.39 0 0 1-1.152.11h-.538v2.083h-1.075v-5.828a5.33 5.33 0 0 1 .832-.115c.304-.02.585-.03.84-.03" class="path70"/>
      <path fill="#173E7D" d="M48.418 78.872v-5.914h3.797v.913h-2.722v1.46h2.424v.896h-2.424v1.732h2.927v.913h-4.002Z" class="path74"/>
      <path fill="#173E7D" d="M55.834 79a3.28 3.28 0 0 1-1.195-.205 2.355 2.355 0 0 1-.896-.602 2.687 2.687 0 0 1-.563-.968 4.037 4.037 0 0 1-.197-1.314c0-.495.076-.933.227-1.314a2.84 2.84 0 0 1 .618-.97c.262-.263.57-.464.922-.6a3.108 3.108 0 0 1 1.135-.206c.245 0 .466.02.666.056.199.037.372.078.52.124.148.046.27.094.367.145.097.051.165.088.205.111l-.316.879a2.533 2.533 0 0 0-.584-.244 2.832 2.832 0 0 0-.824-.114c-.256 0-.495.044-.716.132-.223.088-.415.22-.577.397a1.853 1.853 0 0 0-.38.665 2.885 2.885 0 0 0-.136.93c0 .313.035.6.107.862.07.262.18.488.328.678.148.191.336.34.563.444.228.106.501.158.82.158.38 0 .69-.038.93-.115.239-.077.423-.15.554-.218l.29.88c-.067.045-.16.09-.277.136a4.025 4.025 0 0 1-.951.235c-.2.025-.412.038-.64.038Z" class="path78"/>
      <path fill="#173E7D" d="M61.824 76.926c0 .29-.031.56-.094.81-.062.251-.172.47-.328.658a1.584 1.584 0 0 1-.632.444c-.264.108-.599.162-1.002.162-.376 0-.702-.053-.977-.158a2.35 2.35 0 0 1-.636-.337l.384-.845c.142.097.317.19.524.278.208.088.42.132.636.132.364 0 .63-.091.794-.273.165-.182.247-.495.247-.94v-3.899h1.084v3.968Z" class="path82"/>
      <path fill="#173E7D" d="M65.31 74.102c-.13.301-.28.668-.448 1.1-.168.433-.343.903-.525 1.409h1.946a58.343 58.343 0 0 0-.529-1.417 33.71 33.71 0 0 0-.444-1.093Zm1.745 4.77a24.49 24.49 0 0 0-.248-.691c-.085-.227-.168-.46-.248-.7h-2.498c-.08.24-.161.473-.244.704l-.243.687h-1.118a84.807 84.807 0 0 1 1.214-3.269 43.998 43.998 0 0 1 1.147-2.645h1.027a44.002 44.002 0 0 1 1.147 2.645 85.802 85.802 0 0 1 1.225 3.269h-1.16Z" class="path86"/>
      <path fill="#173E7D" d="M72.696 77.942v.93h-3.738v-5.914h1.075v4.984h2.663Z" class="path90"/>
      <path fill="#173E7D" d="M73.515 72.958h1.075v5.914h-1.075v-5.914Z" class="path92"/>
      <path fill="#173E7D" d="M77.44 78.07c.388 0 .669-.065.846-.196a.65.65 0 0 0 .264-.555.714.714 0 0 0-.09-.367.927.927 0 0 0-.256-.277 2.115 2.115 0 0 0-.405-.23 6.011 6.011 0 0 0-.546-.21 7.252 7.252 0 0 1-.593-.243 1.992 1.992 0 0 1-.504-.329 1.505 1.505 0 0 1-.35-.47 1.493 1.493 0 0 1-.132-.656c0-.535.185-.954.555-1.259.37-.304.873-.457 1.51-.457.37 0 .699.042.986.124.287.083.513.173.678.27l-.333.87a2.546 2.546 0 0 0-.635-.248 2.952 2.952 0 0 0-.713-.085c-.29 0-.516.06-.678.179a.59.59 0 0 0-.244.504c0 .13.028.243.082.336.054.094.13.178.23.252.1.074.216.142.35.205.133.063.28.123.44.18.278.101.527.206.746.31.219.106.404.231.555.376.15.145.266.316.346.513.079.196.119.433.119.712 0 .535-.19.948-.568 1.242-.378.292-.931.439-1.66.439a4.413 4.413 0 0 1-1.207-.162 3.703 3.703 0 0 1-.405-.14 2.449 2.449 0 0 1-.273-.133l.315-.88c.154.086.362.171.623.257.262.085.578.128.948.128Z" class="path96"/>
      <path fill="#173E7D" d="M84.737 72.958v.93h-1.818v4.984h-1.084v-4.984h-1.818v-.93h4.72Z" class="path100"/>
      <path fill="#173E7D" d="M87.766 75.578c.256-.427.506-.86.75-1.297.245-.439.468-.879.667-1.323h1.194c-.318.603-.65 1.202-.994 1.797a40.396 40.396 0 0 1-1.105 1.796v2.32h-1.075v-2.303a45.877 45.877 0 0 1-1.11-1.81 51.54 51.54 0 0 1-.998-1.8h1.263c.2.444.418.885.657 1.323.24.438.49.87.751 1.297Z" class="path104"/>
      <path fill="#173E7D" d="M93.432 79c-.443 0-.842-.068-1.195-.205a2.358 2.358 0 0 1-.895-.602 2.687 2.687 0 0 1-.564-.968 4.037 4.037 0 0 1-.196-1.314c0-.495.076-.933.226-1.314a2.84 2.84 0 0 1 .62-.97c.26-.263.568-.464.92-.6a3.112 3.112 0 0 1 1.135-.206c.245 0 .467.02.666.056.2.037.373.078.52.124.149.046.271.094.368.145.096.051.165.088.205.111l-.316.879a2.542 2.542 0 0 0-.585-.244 2.832 2.832 0 0 0-.823-.114c-.256 0-.495.044-.717.132a1.54 1.54 0 0 0-.576.397 1.853 1.853 0 0 0-.38.665 2.885 2.885 0 0 0-.136.93c0 .313.035.6.106.862s.18.488.329.678c.148.191.335.34.563.444.228.106.5.158.82.158.38 0 .69-.038.93-.115.238-.077.423-.15.554-.218l.29.88a1.52 1.52 0 0 1-.277.136 3.994 3.994 0 0 1-.951.235 5.09 5.09 0 0 1-.64.038Z" class="path108"/>
      <path fill="#173E7D" d="M100.25 73.752c-.187.205-.415.47-.682.797-.267.328-.544.683-.828 1.067-.285.384-.565.78-.84 1.186-.277.407-.52.793-.73 1.157h3.175v.913h-4.472v-.674a23.285 23.285 0 0 1 .879-1.45 31.08 31.08 0 0 1 1.084-1.566c.181-.248.36-.484.533-.71.173-.224.337-.424.49-.6h-2.841v-.914h4.232v.794Z" class="path112"/>
      <path fill="#173E7D" d="M105.328 78.872a37.31 37.31 0 0 0-.648-1.046 56.019 56.019 0 0 0-.743-1.126 29.423 29.423 0 0 0-.781-1.1 20.518 20.518 0 0 0-.755-.96v4.232h-1.058v-5.914h.879c.227.24.472.522.734.85a41.695 41.695 0 0 1 1.557 2.081c.248.356.468.687.662.995v-3.926h1.066v5.914h-.913Z" class="path116"/>
      <path fill="#173E7D" d="M109.847 74.102c-.131.301-.281.668-.449 1.1a66.07 66.07 0 0 0-.524 1.409h1.945a57.114 57.114 0 0 0-.529-1.417 33.4 33.4 0 0 0-.443-1.093Zm1.745 4.77c-.08-.233-.163-.463-.248-.691-.086-.227-.169-.46-.248-.7h-2.498c-.08.24-.162.473-.244.704-.083.23-.164.46-.244.687h-1.118c.221-.632.432-1.215.631-1.75.199-.534.393-1.04.584-1.519a47.016 47.016 0 0 1 1.147-2.645h1.026c.199.421.393.848.58 1.28.188.433.377.888.568 1.365a85.778 85.778 0 0 1 1.225 3.269h-1.161Z" class="path120"/>
      <path fill="#173E7D" d="M117.232 73.829c-.273 0-.498.008-.674.025v2.014h.521c.517 0 .915-.072 1.194-.217.279-.146.419-.42.419-.824a.977.977 0 0 0-.112-.486.792.792 0 0 0-.307-.308 1.433 1.433 0 0 0-.465-.157 3.355 3.355 0 0 0-.576-.047Zm-.077-.93c.859 0 1.518.156 1.976.469.458.313.687.802.687 1.468 0 .347-.061.644-.184.892-.122.247-.3.449-.533.605a2.469 2.469 0 0 1-.854.346c-.335.074-.719.11-1.151.11h-.538v2.083h-1.076v-5.828a5.35 5.35 0 0 1 .833-.115c.304-.02.584-.03.84-.03" class="path124"/>
      <path fill="#173E7D" d="M122.506 73.829c-.228 0-.438.008-.631.025v1.912h.469c.261 0 .492-.014.691-.043.199-.028.366-.08.499-.154a.741.741 0 0 0 .303-.298.98.98 0 0 0 .102-.478.945.945 0 0 0-.102-.461.762.762 0 0 0-.294-.299 1.385 1.385 0 0 0-.457-.157 3.335 3.335 0 0 0-.58-.047Zm-.077-.93c.853 0 1.506.156 1.959.469.452.313.678.79.678 1.434 0 .802-.395 1.345-1.186 1.63.108.13.23.29.367.477a13.577 13.577 0 0 1 .827 1.284c.132.231.248.457.35.68h-1.203a13.343 13.343 0 0 0-.349-.62 24.34 24.34 0 0 0-.38-.606 14.374 14.374 0 0 0-.73-1.02c-.08.007-.148.01-.205.01h-.682v2.235h-1.076v-5.828c.262-.057.54-.096.837-.115.295-.02.56-.03.793-.03" class="path128"/>
      <path fill="#173E7D" d="M130.289 73.752c-.188.205-.416.47-.683.797-.267.328-.543.683-.828 1.067-.284.384-.564.78-.841 1.186a18.85 18.85 0 0 0-.729 1.157h3.175v.913h-4.472v-.674c.114-.21.246-.44.397-.687a37.071 37.071 0 0 1 1.015-1.558 36.139 36.139 0 0 1 1.084-1.48c.174-.225.337-.425.49-.601h-2.841v-.914h4.233v.794Z" class="path132"/>
      <path fill="#173E7D" d="M133.454 75.578c.256-.427.507-.86.752-1.297.244-.439.465-.879.665-1.323h1.195a54.395 54.395 0 0 1-.995 1.797 39.623 39.623 0 0 1-1.104 1.796v2.32h-1.076v-2.303a46.466 46.466 0 0 1-2.107-3.61h1.262c.199.444.419.885.657 1.323.239.438.489.87.751 1.297Z" class="path136"/>
      <path fill="#173E7D" d="M139.121 79a3.29 3.29 0 0 1-1.195-.205 2.357 2.357 0 0 1-.896-.602 2.67 2.67 0 0 1-.563-.968 4.037 4.037 0 0 1-.197-1.314c0-.495.076-.933.227-1.314.15-.381.357-.705.618-.97.262-.263.569-.464.922-.6a3.118 3.118 0 0 1 1.135-.206c.245 0 .466.02.666.056.199.037.372.078.521.124.147.046.269.094.366.145.097.051.165.088.205.111l-.316.879a2.54 2.54 0 0 0-.584-.244 2.838 2.838 0 0 0-.824-.114c-.256 0-.495.044-.717.132-.221.088-.414.22-.576.397a1.864 1.864 0 0 0-.379.665 2.885 2.885 0 0 0-.137.93c0 .313.036.6.106.862.072.262.181.488.329.678.148.191.336.34.563.444.228.106.501.158.819.158.382 0 .692-.038.931-.115a3.75 3.75 0 0 0 .555-.218l.29.88a1.499 1.499 0 0 1-.278.136 4.084 4.084 0 0 1-.951.235 5.09 5.09 0 0 1-.64.038Z" class="path140"/>
      <path fill="#173E7D" d="M145.581 72.958h1.075v5.914h-1.075v-2.62h-2.569v2.62h-1.075v-5.914h1.075v2.364h2.569v-2.364Z" class="path144"/>
      <path fill="#173E7D" d="M148.951 75.91c0 .325.04.62.12.884.079.265.195.49.345.674.151.185.335.33.551.431a1.7 1.7 0 0 0 .734.154c.267 0 .509-.052.725-.154.217-.102.4-.246.551-.43.15-.186.265-.41.345-.675.08-.265.12-.559.12-.883 0-.324-.04-.619-.12-.884a1.958 1.958 0 0 0-.345-.674 1.564 1.564 0 0 0-.551-.43 1.67 1.67 0 0 0-.725-.154c-.273 0-.518.05-.734.153a1.55 1.55 0 0 0-.551.436 1.99 1.99 0 0 0-.345.674c-.08.262-.12.555-.12.879Zm4.617 0c0 .507-.075.954-.226 1.34-.151.387-.356.71-.614.97a2.531 2.531 0 0 1-.91.584c-.346.13-.717.196-1.109.196s-.763-.066-1.113-.196a2.539 2.539 0 0 1-.914-.585 2.843 2.843 0 0 1-.618-.968c-.154-.387-.23-.834-.23-1.34 0-.507.076-.952.23-1.336.154-.384.362-.707.627-.968s.571-.458.917-.589a3.091 3.091 0 0 1 1.101-.196c.387 0 .754.065 1.101.196.347.13.65.328.909.589.259.261.465.584.618.968.155.384.231.83.231 1.336Z" class="path148"/>
      <path fill="#173E7D" d="M155.82 77.985c.064.005.146.01.248.012.103.004.242.004.418.004.723 0 1.262-.183 1.617-.55.356-.366.534-.88.534-1.54 0-.671-.174-1.187-.52-1.545-.348-.358-.885-.537-1.613-.537-.319 0-.547.008-.684.025v4.13Zm3.943-2.074c0 .512-.08.957-.239 1.335a2.52 2.52 0 0 1-.678.948 2.822 2.822 0 0 1-1.058.563 4.817 4.817 0 0 1-1.37.183c-.239 0-.509-.01-.81-.03a5.377 5.377 0 0 1-.862-.124v-5.743c.272-.062.563-.102.87-.119.307-.017.58-.025.819-.025.495 0 .947.058 1.357.174.409.117.761.3 1.054.547.293.247.519.56.678.938.159.379.239.83.239 1.353" class="path152"/>
      <path fill="#173E7D" d="M164.926 78.872c-.193-.324-.41-.673-.649-1.046a51.927 51.927 0 0 0-.742-1.126 29.423 29.423 0 0 0-.781-1.1 20.518 20.518 0 0 0-.755-.96v4.232h-1.058v-5.914h.879c.227.24.473.522.734.85a41.695 41.695 0 0 1 1.557 2.081c.248.356.468.687.662.995v-3.926h1.066v5.914h-.913Z" class="path156"/>
      <path fill="#173E7D" d="M167.256 72.958h1.075v5.914h-1.075v-5.914Z" class="path158"/>
      <path fill="#173E7D" d="M171.936 74.102c-.131.301-.28.668-.448 1.1-.168.433-.342.903-.524 1.409h1.946a66.447 66.447 0 0 0-.529-1.417 32.866 32.866 0 0 0-.445-1.093Zm1.746 4.77a24.07 24.07 0 0 0-.249-.691 18.9 18.9 0 0 1-.247-.7h-2.498c-.08.24-.161.473-.244.704-.083.23-.165.46-.244.687h-1.118a87.895 87.895 0 0 1 1.215-3.269c.19-.477.379-.932.566-1.365.189-.432.382-.859.581-1.28h1.026c.199.421.393.848.58 1.28.188.433.377.888.568 1.365a89.944 89.944 0 0 1 1.225 3.269h-1.161Z" class="path162"/>
      <path fill="#173E7D" d="M179.28 73.829a7.25 7.25 0 0 0-.632.025v1.912h.469c.262 0 .492-.014.692-.043.199-.028.365-.08.498-.154a.75.75 0 0 0 .304-.298.992.992 0 0 0 .102-.478.956.956 0 0 0-.102-.461.772.772 0 0 0-.295-.299 1.38 1.38 0 0 0-.456-.157 3.344 3.344 0 0 0-.58-.047Zm-.077-.93c.853 0 1.506.156 1.958.469.453.313.678.79.678 1.434 0 .802-.395 1.345-1.186 1.63.109.13.23.29.367.477a13.554 13.554 0 0 1 .828 1.284c.131.231.248.457.35.68h-1.203a12.51 12.51 0 0 0-.35-.62 21.714 21.714 0 0 0-.38-.606 13.77 13.77 0 0 0-.729-1.02c-.08.006-.148.01-.205.01h-.683v2.235h-1.075v-5.828c.262-.057.54-.096.836-.115.295-.02.56-.03.794-.03" class="path166"/>
      <path fill="#173E7D" d="M183.837 75.91c0 .325.039.62.119.884.08.265.194.49.345.674.151.185.335.33.551.431.217.102.461.154.734.154.267 0 .509-.052.725-.154.216-.102.4-.246.55-.43a1.95 1.95 0 0 0 .347-.675c.079-.265.119-.559.119-.883 0-.324-.04-.619-.119-.884a1.943 1.943 0 0 0-.347-.674 1.56 1.56 0 0 0-.55-.43 1.67 1.67 0 0 0-.725-.154c-.273 0-.517.05-.734.153a1.55 1.55 0 0 0-.551.436 1.99 1.99 0 0 0-.345.674c-.08.262-.119.555-.119.879Zm4.616 0c0 .507-.075.954-.226 1.34a2.75 2.75 0 0 1-.615.97 2.524 2.524 0 0 1-.908.584c-.347.13-.717.196-1.109.196-.393 0-.764-.066-1.114-.196a2.518 2.518 0 0 1-.913-.585 2.83 2.83 0 0 1-.619-.968c-.153-.387-.23-.834-.23-1.34 0-.507.077-.952.23-1.336.154-.384.363-.707.627-.968.265-.261.571-.458.917-.589a3.096 3.096 0 0 1 1.102-.196c.386 0 .753.065 1.1.196.347.13.65.328.909.589.259.261.465.584.619.968.153.384.23.83.23 1.336Z" class="path170"/>
      <path fill="#173E7D" d="M190.706 77.985c.063.005.145.01.247.012.103.004.243.004.419.004.722 0 1.262-.183 1.617-.55.356-.366.534-.88.534-1.54 0-.671-.174-1.187-.521-1.545-.348-.358-.885-.537-1.613-.537a6.33 6.33 0 0 0-.683.025v4.13Zm3.943-2.074c0 .512-.08.957-.239 1.335-.16.379-.386.694-.679.948a2.814 2.814 0 0 1-1.058.563 4.81 4.81 0 0 1-1.369.183c-.239 0-.51-.01-.811-.03a5.41 5.41 0 0 1-.862-.124v-5.743c.273-.062.563-.102.87-.119.307-.017.58-.025.82-.025.495 0 .947.058 1.357.174a2.79 2.79 0 0 1 1.053.547c.293.247.519.56.679.938.159.379.239.83.239 1.353" class="path174"/>
      <path fill="#173E7D" d="M199.641 73.752c-.188.205-.416.47-.683.797a28.64 28.64 0 0 0-.828 1.067c-.284.384-.564.78-.84 1.186-.276.407-.519.793-.73 1.157h3.175v.913h-4.472v-.674c.114-.21.246-.44.397-.687.151-.248.311-.502.482-.763a37.165 37.165 0 0 1 1.084-1.567c.182-.247.359-.483.534-.708.172-.225.336-.425.49-.601h-2.842v-.914h4.233v.794Z" class="path178"/>
      <path fill="#173E7D" d="M200.734 72.958h1.075v5.914h-1.075v-5.914Z" class="path180"/>
      <path fill="#173E7D" d="M207.211 78.872a46.227 46.227 0 0 0-1.392-2.172 30.62 30.62 0 0 0-.78-1.1 21.186 21.186 0 0 0-.756-.96v4.232h-1.058v-5.914h.879c.228.24.472.522.734.85a41.695 41.695 0 0 1 1.557 2.081c.248.356.468.687.661.995v-3.926h1.067v5.914h-.912Z" class="path184"/>
      <path fill="#173E7D" d="M213.526 78.872a43.65 43.65 0 0 0-.649-1.046 56.019 56.019 0 0 0-.743-1.126 30.62 30.62 0 0 0-.78-1.1 21.186 21.186 0 0 0-.756-.96v4.232h-1.058v-5.914h.879c.228.24.472.522.734.85a41.695 41.695 0 0 1 1.557 2.081c.248.356.468.687.661.995v-3.926h1.067v5.914h-.912Z" class="path188"/>
      <path fill="#173E7D" d="M218.043 74.102c-.131.301-.28.668-.447 1.1-.169.433-.343.903-.525 1.409h1.946a61.428 61.428 0 0 0-.529-1.417 32.866 32.866 0 0 0-.445-1.093Zm1.746 4.77a24.07 24.07 0 0 0-.249-.691c-.085-.227-.167-.46-.247-.7h-2.498c-.08.24-.161.473-.244.704-.083.23-.165.46-.244.687h-1.118a87.895 87.895 0 0 1 1.215-3.269c.19-.477.379-.932.566-1.365.189-.432.382-.859.581-1.28h1.026c.199.421.393.848.58 1.28.188.433.377.888.568 1.365a85.778 85.778 0 0 1 1.225 3.269h-1.161Z" class="path192"/>
    </g>
    <g class="Stetoskop">
      <path fill="#173E7D" d="m5.43 2.626.952 4.281s9.117 2.537 10.148-3.726c.317-1.903-4.123-5.788-11.1-.555Z" class="path50"/>
      <path fill="#173E7D" d="m5.906 6.907-.951-4.123S-.515 4.212.04 10.474C.594 16.739 2.576 25.46 3.448 26.65h4.044S1.229 7.7 5.906 6.907Z" class="path54"/>
      <path fill="#173E7D" d="m36.66 2.626-.95 4.281s-9.118 2.537-10.15-3.726c-.316-1.903 4.124-5.788 11.1-.555Z" class="path58"/>
      <path fill="#173E7D" d="m36.185 6.907.951-4.123s5.47 1.428 4.915 7.69c-.555 6.264-2.536 14.986-3.408 16.175h-4.044S40.862 7.7 36.185 6.907Z" class="path62"/>
      <path fill="#68BCEB" d="M227.925 70.467a3.692 3.692 0 1 1 0-7.383 3.692 3.692 0 0 1 0 7.383Zm0-10.15a6.459 6.459 0 0 0-6.129 4.426H37.258s-8.816-1.38-12.58-10.441c-1.085-2.743-1.66-7.019-1.468-11.166 0 0 11.74-1.689 14.93-12.999h-4.275s-3.444 8.438-12.578 9.224c0 0-9.99-1.468-12.527-9.224H4.558s3.806 11.258 14.747 12.844c0 2.774-1.983 19.82 16.41 25.449 3.093.793 6.74.634 6.74.634l179.301-.362a6.463 6.463 0 0 0 12.629-1.926 6.46 6.46 0 0 0-6.46-6.46" class="path196"/>
      <path fill="#fff" d="M227.925 63.085a3.692 3.692 0 1 0 0 7.383 3.692 3.692 0 0 0 0-7.383Z" class="path200"/>
    </g>
  </g>
</svg>
