<svg width="15" height="15" viewBox="0 0 15 15" fill="none" xmlns="http://www.w3.org/2000/svg">
<path d="M7.87478 14.6248C7.79965 14.6248 7.72528 14.6098 7.65605 14.5806C7.58683 14.5514 7.52415 14.5087 7.47172 14.4549C7.41929 14.4011 7.37817 14.3373 7.35078 14.2673C7.3234 14.1974 7.31031 14.1226 7.31228 14.0475V7.59812C7.31228 7.52352 7.28265 7.45199 7.2299 7.39924C7.17716 7.3465 7.10562 7.31687 7.03103 7.31687H0.576693C0.458384 7.31827 0.342538 7.28304 0.245042 7.216C0.147546 7.14897 0.0731728 7.05342 0.032122 6.94245C-0.0146271 6.81012 -0.0102162 6.66509 0.0444884 6.53584C0.0991931 6.40659 0.200239 6.30246 0.327786 6.2439L13.8278 0.0511239C13.9321 0.00333484 14.0485 -0.0114192 14.1614 0.00884059C14.2744 0.0291004 14.3784 0.0834052 14.4596 0.164472C14.5407 0.245538 14.5952 0.34949 14.6156 0.462384C14.636 0.575279 14.6214 0.691718 14.5738 0.796085L8.3863 14.2961C8.3415 14.3941 8.26947 14.4772 8.17878 14.5355C8.0881 14.5938 7.98257 14.6248 7.87478 14.6248Z" fill="#68BCEB"/>
</svg>
