<svg xmlns="http://www.w3.org/2000/svg" width="65" height="66" fill="none" viewBox="0 0 65 66">
  <path stroke="#021A42" stroke-linecap="round" stroke-linejoin="round" stroke-width="2.7" d="M47.357 26.577V8.764a2.229 2.229 0 0 0-2.23-2.23h-9.935m-21.497 0H3.59a2.229 2.229 0 0 0-2.229 2.23V62.41a2.229 2.229 0 0 0 2.23 2.229h41.557a2.229 2.229 0 0 0 2.229-2.23v-24.27m4.193 2.965 10.88-10.862-9.312-9.312M23.877 55.78l3.136-3.136m30.752-36.269 5.667 5.667-29.166 29.053c-5.799 5.8-11.334.189-5.667-5.667l29.166-29.053Z"/>
  <path stroke="#68BCEB" stroke-linecap="round" stroke-linejoin="round" stroke-width="2.7" d="m9.445 19.078 2.607 3.419 3.06-3.91m-5.667 9.218 2.663 3.419 3.004-3.93m-5.667 9.219 2.607 3.419 3.06-3.91m4.817-15.698h17.152m-17.152 8.709h17.152M19.929 37.76h8.425M14.243 10.237h20.231V2.152H14.243v8.085Z"/>
</svg>
