<svg xmlns="http://www.w3.org/2000/svg" width="65" height="65" fill="none" viewBox="0 0 65 65">
  <path fill="#021A42" d="M64.689.312a1.064 1.064 0 0 0-1.506 0L51.578 11.917a1.765 1.765 0 0 0-1.5.497l-3.246 3.245-4.095-4.094a1.775 1.775 0 0 0-2.51 0L13.252 38.54l-.54-.54a1.775 1.775 0 0 0-2.51 2.51l1.795 1.794 4.095 4.095-9.876 9.875L3.03 53.09A1.775 1.775 0 0 0 .52 55.6l8.882 8.881c.347.347.8.52 1.255.52a1.774 1.774 0 0 0 1.255-3.029l-3.186-3.186 9.876-9.876 4.094 4.095 1.795 1.794c.346.347.8.52 1.255.52A1.774 1.774 0 0 0 27 52.288l-.54-.539 26.975-26.976a1.774 1.774 0 0 0 0-2.51l-4.095-4.094 3.246-3.246c.41-.41.57-.968.496-1.5L64.69 1.818a1.065 1.065 0 0 0 0-1.506ZM23.95 49.239l-8.19-8.19 5.117-5.116 4.095 4.095a1.06 1.06 0 0 0 1.505 0 1.064 1.064 0 0 0 0-1.506l-4.094-4.094 2.53-2.53 4.094 4.095a1.062 1.062 0 0 0 1.506 0 1.065 1.065 0 0 0 0-1.507l-4.095-4.094 2.53-2.53 4.095 4.095a1.06 1.06 0 0 0 1.505 0 1.064 1.064 0 0 0 0-1.505l-4.094-4.095 2.53-2.53 4.094 4.095a1.062 1.062 0 0 0 1.505 0 1.064 1.064 0 0 0 0-1.506l-4.094-4.095 6.992-6.992 8.19 8.19-25.721 25.72Z"/>
</svg>
